{
  "accessors": [
    {
      "bufferView": 2,
      "componentType": 5126,
      "count": 9583,
      "max": [1.6645100116729736, 1.6422300338745117, -0.0],
      "min": [-1.6645100116729736, -1.5696699619293213, -4.622320175170898],
      "type": "VEC3"
    },
    {
      "bufferView": 2,
      "byteOffset": 114996,
      "componentType": 5126,
      "count": 9583,
      "max": [0.9997202754020691, 0.9999958872795105, 1.0],
      "min": [-0.9997202754020691, -1.0, -1.0],
      "type": "VEC3"
    },
    {
      "bufferView": 0,
      "componentType": 5125,
      "count": 57216,
      "type": "SCALAR"
    },
    {
      "bufferView": 2,
      "byteOffset": 229992,
      "componentType": 5126,
      "count": 5507,
      "max": [4.97681999206543, 0.00913000013679266, 3.585249900817871],
      "min": [-4.97681999206543, -0.84579998254776, -3.2893500328063965],
      "type": "VEC3"
    },
    {
      "bufferView": 2,
      "byteOffset": 296076,
      "componentType": 5126,
      "count": 5507,
      "max": [1.0, 1.0, 1.0],
      "min": [-1.0, -1.0, -1.0],
      "type": "VEC3"
    },
    {
      "bufferView": 0,
      "byteOffset": 228864,
      "componentType": 5125,
      "count": 32940,
      "type": "SCALAR"
    },
    {
      "bufferView": 2,
      "byteOffset": 362160,
      "componentType": 5126,
      "count": 64,
      "max": [1.0, 1.0, 0.0],
      "min": [-1.0, -1.0, 0.0],
      "type": "VEC3"
    },
    {
      "bufferView": 2,
      "byteOffset": 362928,
      "componentType": 5126,
      "count": 64,
      "max": [0.0, -0.0, 1.0],
      "min": [0.0, -0.0, 1.0],
      "type": "VEC3"
    },
    {
      "bufferView": 1,
      "componentType": 5126,
      "count": 64,
      "max": [1.0, 1.0],
      "min": [0.0, 0.0],
      "type": "VEC2"
    },
    {
      "bufferView": 0,
      "byteOffset": 360624,
      "componentType": 5125,
      "count": 192,
      "type": "SCALAR"
    },
    {
      "bufferView": 2,
      "byteOffset": 363696,
      "componentType": 5126,
      "count": 32,
      "max": [0.5301200151443481, 0.5301200151443481, 0.0],
      "min": [-0.5301200151443481, -0.5301200151443481, 0.0],
      "type": "VEC3"
    },
    {
      "bufferView": 2,
      "byteOffset": 364080,
      "componentType": 5126,
      "count": 32,
      "max": [0.0, 0.0, 1.0],
      "min": [0.0, 0.0, 1.0],
      "type": "VEC3"
    },
    {
      "bufferView": 1,
      "byteOffset": 512,
      "componentType": 5126,
      "count": 32,
      "max": [0.7650600075721741, 0.7650600075721741],
      "min": [0.23494000732898712, 0.23494000732898712],
      "type": "VEC2"
    },
    {
      "bufferView": 0,
      "byteOffset": 361392,
      "componentType": 5125,
      "count": 90,
      "type": "SCALAR"
    },
    {
      "bufferView": 2,
      "byteOffset": 364464,
      "componentType": 5126,
      "count": 8,
      "max": [1.0, 1.0, 0.0],
      "min": [-1.0, -1.0, 0.0],
      "type": "VEC3"
    },
    {
      "bufferView": 2,
      "byteOffset": 364560,
      "componentType": 5126,
      "count": 8,
      "max": [0.0, 0.0, 1.0],
      "min": [0.0, 0.0, 1.0],
      "type": "VEC3"
    },
    {
      "bufferView": 0,
      "byteOffset": 361752,
      "componentType": 5125,
      "count": 12,
      "type": "SCALAR"
    },
    {
      "bufferView": 2,
      "byteOffset": 364656,
      "componentType": 5126,
      "count": 56,
      "max": [1.0, -0.0083600003272295, 1.0],
      "min": [-1.0, -0.04428999871015549, -1.0],
      "type": "VEC3"
    },
    {
      "bufferView": 2,
      "byteOffset": 365328,
      "componentType": 5126,
      "count": 56,
      "max": [0.06752034276723862, 0.9999855756759644, 0.008120006881654263],
      "min": [-0.06752034276723862, 0.9976851344108582, 0.00536001892760396],
      "type": "VEC3"
    },
    {
      "bufferView": 0,
      "byteOffset": 361800,
      "componentType": 5125,
      "count": 84,
      "type": "SCALAR"
    },
    {
      "bufferView": 2,
      "byteOffset": 366000,
      "componentType": 5126,
      "count": 80,
      "max": [4.564760208129883, 1.0, 4.118279933929443],
      "min": [-4.564760208129883, -1.464229941368103, -1.0],
      "type": "VEC3"
    },
    {
      "bufferView": 2,
      "byteOffset": 366960,
      "componentType": 5126,
      "count": 80,
      "max": [1.0, 1.0, 1.0],
      "min": [-1.0, -1.0, -1.0],
      "type": "VEC3"
    },
    {
      "bufferView": 0,
      "byteOffset": 362136,
      "componentType": 5125,
      "count": 132,
      "type": "SCALAR"
    },
    {
      "bufferView": 2,
      "byteOffset": 367920,
      "componentType": 5126,
      "count": 20,
      "max": [0.31275999546051025, 0.31275999546051025, -0.02638000063598156],
      "min": [-0.31275999546051025, -0.31275999546051025, -0.09844999760389328],
      "type": "VEC3"
    },
    {
      "bufferView": 2,
      "byteOffset": 368160,
      "componentType": 5126,
      "count": 20,
      "max": [0.023710643872618675, 0.1406932920217514, 0.9979166388511658],
      "min": [-0.023710643872618675, 0.06339172273874283, 0.9897783398628235],
      "type": "VEC3"
    },
    {
      "bufferView": 1,
      "byteOffset": 768,
      "componentType": 5126,
      "count": 20,
      "max": [0.8172799944877625, 0.8341100215911865],
      "min": [0.17649999260902405, 0.18932999670505524],
      "type": "VEC2"
    },
    {
      "bufferView": 0,
      "byteOffset": 362664,
      "componentType": 5125,
      "count": 72,
      "type": "SCALAR"
    },
    {
      "bufferView": 2,
      "byteOffset": 368400,
      "componentType": 5126,
      "count": 8,
      "max": [2.5179500579833984, 0.5026000142097473, 0.02336999960243702],
      "min": [-2.516779899597168, -0.5, 0.0],
      "type": "VEC3"
    },
    {
      "bufferView": 2,
      "byteOffset": 368496,
      "componentType": 5126,
      "count": 8,
      "max": [0.004540007561445236, 0.0, 0.9999578595161438],
      "min": [-0.00918998010456562, -0.01167001947760582, 0.9999216794967651],
      "type": "VEC3"
    },
    {
      "bufferView": 1,
      "byteOffset": 928,
      "componentType": 5126,
      "count": 8,
      "max": [1.0, 1.0],
      "min": [0.0, 0.0],
      "type": "VEC2"
    },
    {
      "bufferView": 0,
      "byteOffset": 362952,
      "componentType": 5125,
      "count": 12,
      "type": "SCALAR"
    },
    {
      "bufferView": 2,
      "byteOffset": 368592,
      "componentType": 5126,
      "count": 32,
      "max": [1.0, 1.0, 0.0],
      "min": [-1.0, -1.0, 0.0],
      "type": "VEC3"
    },
    {
      "bufferView": 2,
      "byteOffset": 368976,
      "componentType": 5126,
      "count": 32,
      "max": [0.0, 0.0, 1.0],
      "min": [0.0, 0.0, 1.0],
      "type": "VEC3"
    },
    {
      "bufferView": 1,
      "byteOffset": 992,
      "componentType": 5126,
      "count": 32,
      "max": [0.858299970626831, 0.8458999991416931],
      "min": [0.14169999957084656, 0.12929999828338623],
      "type": "VEC2"
    },
    {
      "bufferView": 0,
      "byteOffset": 363000,
      "componentType": 5125,
      "count": 90,
      "type": "SCALAR"
    },
    {
      "bufferView": 2,
      "byteOffset": 369360,
      "componentType": 5126,
      "count": 1836,
      "max": [4.976789951324463, -0.1857600063085556, 3.9677999019622803],
      "min": [-4.976789951324463, -0.22142000496387482, -1.9895299673080444],
      "type": "VEC3"
    },
    {
      "bufferView": 2,
      "byteOffset": 391392,
      "componentType": 5126,
      "count": 1836,
      "max": [1.0, 1.0, 1.0],
      "min": [-1.0, -1.0, -1.0],
      "type": "VEC3"
    },
    {
      "bufferView": 1,
      "byteOffset": 1248,
      "componentType": 5126,
      "count": 1836,
      "max": [0.00018000000272877514, 0.0002699999895412475],
      "min": [0.0, 0.0],
      "type": "VEC2"
    },
    {
      "bufferView": 0,
      "byteOffset": 363360,
      "componentType": 5125,
      "count": 10668,
      "type": "SCALAR"
    },
    {
      "bufferView": 2,
      "byteOffset": 413424,
      "componentType": 5126,
      "count": 63,
      "max": [4.729320049285889, -0.22142000496387482, 3.6804699897766113],
      "min": [-4.729320049285889, -0.22142000496387482, -1.6927299499511719],
      "type": "VEC3"
    },
    {
      "bufferView": 2,
      "byteOffset": 414180,
      "componentType": 5126,
      "count": 63,
      "max": [0.0, -1.0, 0.0],
      "min": [0.0, -1.0, 0.0],
      "type": "VEC3"
    },
    {
      "bufferView": 1,
      "byteOffset": 15936,
      "componentType": 5126,
      "count": 63,
      "max": [1.0, 1.0],
      "min": [0.0, 9.999999747378752e-6],
      "type": "VEC2"
    },
    {
      "bufferView": 0,
      "byteOffset": 406032,
      "componentType": 5125,
      "count": 288,
      "type": "SCALAR"
    }
  ],
  "asset": {
    "extras": {
      "author": "Ne0nGenisis (https://sketchfab.com/Ne0nGenisis)",
      "license": "CC-BY-4.0 (http://creativecommons.org/licenses/by/4.0/)",
      "source": "https://sketchfab.com/3d-models/2009-2011-imac-27-inch-7b3732dbf3d14ecbb919373233efcfd1",
      "title": "2009 - 2011 iMac, 27 inch"
    },
    "generator": "Sketchfab-12.65.0",
    "version": "2.0"
  },
  "bufferViews": [
    {
      "buffer": 0,
      "byteLength": 407184,
      "name": "floatBufferViews",
      "target": 34963
    },
    {
      "buffer": 0,
      "byteLength": 16440,
      "byteOffset": 407184,
      "byteStride": 8,
      "name": "floatBufferViews",
      "target": 34962
    },
    {
      "buffer": 0,
      "byteLength": 414936,
      "byteOffset": 423624,
      "byteStride": 12,
      "name": "floatBufferViews",
      "target": 34962
    }
  ],
  "buffers": [
    {
      "byteLength": 838560,
      "uri": "scene.bin"
    }
  ],
  "images": [
    {
      "uri": "textures/PwrBtnOutline_baseColor.png"
    },
    {
      "uri": "textures/AppleLogoBack_baseColor.png"
    },
    {
      "uri": "textures/RearIO_baseColor.png"
    },
    {
      "uri": "textures/DisplayImage_baseColor.jpg"
    }
  ],
  "materials": [
    {
      "doubleSided": true,
      "name": "MetalDiffuse",
      "pbrMetallicRoughness": {
        "baseColorFactor": [
          0.5684522089150544, 0.5684522089150544, 0.5684522089150544, 1.0
        ],
        "roughnessFactor": 0.6
      }
    },
    {
      "alphaMode": "BLEND",
      "doubleSided": true,
      "name": "PwrBtnOutline",
      "pbrMetallicRoughness": {
        "baseColorFactor": [0.0, 0.0, 0.0, 0.33708079268292684],
        "baseColorTexture": {
          "index": 0
        },
        "roughnessFactor": 0.0
      }
    },
    {
      "alphaMode": "BLEND",
      "doubleSided": true,
      "name": "PwrBtnIcon",
      "pbrMetallicRoughness": {
        "baseColorFactor": [
          0.10556041286686094, 0.10556041286686094, 0.10556041286686094, 1.0
        ],
        "baseColorTexture": {
          "index": 0
        },
        "roughnessFactor": 0.6
      }
    },
    {
      "alphaMode": "BLEND",
      "doubleSided": true,
      "name": "DiskSDVent",
      "pbrMetallicRoughness": {
        "baseColorFactor": [0.0, 0.0, 0.0, 0.580983231707317]
      }
    },
    {
      "doubleSided": true,
      "name": "PlugProng",
      "pbrMetallicRoughness": {
        "baseColorFactor": [
          0.472307320362618, 0.28944267393085865, 0.022415012078355688, 1.0
        ],
        "roughnessFactor": 0.23342225609756098
      }
    },
    {
      "alphaMode": "BLEND",
      "doubleSided": true,
      "name": "AppleLogoBack",
      "pbrMetallicRoughness": {
        "baseColorFactor": [0.0, 0.0, 0.0, 1.0],
        "baseColorTexture": {
          "index": 1
        },
        "roughnessFactor": 0.0
      }
    },
    {
      "alphaMode": "BLEND",
      "doubleSided": true,
      "name": "RearIO",
      "pbrMetallicRoughness": {
        "baseColorTexture": {
          "index": 2
        },
        "roughnessFactor": 0.0
      }
    },
    {
      "alphaMode": "BLEND",
      "doubleSided": true,
      "name": "AppleLogoFront",
      "pbrMetallicRoughness": {
        "baseColorFactor": [
          0.5978448804492565, 0.5978448804492565, 0.5978448804492565, 1.0
        ],
        "baseColorTexture": {
          "index": 1
        },
        "roughnessFactor": 0.0
      }
    },
    {
      "doubleSided": true,
      "name": "GlassBlack",
      "pbrMetallicRoughness": {
        "baseColorFactor": [0.0, 0.0, 0.0, 1.0],
        "roughnessFactor": 0.0
      }
    },
    {
      "doubleSided": true,
      "emissiveFactor": [1, 1, 1],
      "emissiveTexture": {
        "index": 3
      },
      "name": "DisplayImage",
      "pbrMetallicRoughness": {
        "baseColorFactor": [0.0, 0.0, 0.0, 0.0]
      }
    }
  ],
  "meshes": [
    {
      "name": "Plane_0",
      "primitives": [
        {
          "attributes": {
            "NORMAL": 1,
            "POSITION": 0
          },
          "indices": 2,
          "material": 0,
          "mode": 4
        }
      ]
    },
    {
      "name": "Cube.003_0",
      "primitives": [
        {
          "attributes": {
            "NORMAL": 4,
            "POSITION": 3
          },
          "indices": 5,
          "material": 0,
          "mode": 4
        }
      ]
    },
    {
      "name": "Circle.001_0",
      "primitives": [
        {
          "attributes": {
            "NORMAL": 7,
            "POSITION": 6,
            "TEXCOORD_0": 8
          },
          "indices": 9,
          "material": 1,
          "mode": 4
        }
      ]
    },
    {
      "name": "Circle.001_1",
      "primitives": [
        {
          "attributes": {
            "NORMAL": 11,
            "POSITION": 10,
            "TEXCOORD_0": 12
          },
          "indices": 13,
          "material": 2,
          "mode": 4
        }
      ]
    },
    {
      "name": "Plane.004_0",
      "primitives": [
        {
          "attributes": {
            "NORMAL": 15,
            "POSITION": 14
          },
          "indices": 16,
          "material": 3,
          "mode": 4
        }
      ]
    },
    {
      "name": "Cube_0",
      "primitives": [
        {
          "attributes": {
            "NORMAL": 18,
            "POSITION": 17
          },
          "indices": 19,
          "material": 3,
          "mode": 4
        }
      ]
    },
    {
      "name": "Cube.002_0",
      "primitives": [
        {
          "attributes": {
            "NORMAL": 21,
            "POSITION": 20
          },
          "indices": 22,
          "material": 4,
          "mode": 4
        }
      ]
    },
    {
      "name": "56-apple-512_0",
      "primitives": [
        {
          "attributes": {
            "NORMAL": 24,
            "POSITION": 23,
            "TEXCOORD_0": 25
          },
          "indices": 26,
          "material": 5,
          "mode": 4
        }
      ]
    },
    {
      "name": "iMacIO_0",
      "primitives": [
        {
          "attributes": {
            "NORMAL": 28,
            "POSITION": 27,
            "TEXCOORD_0": 29
          },
          "indices": 30,
          "material": 6,
          "mode": 4
        }
      ]
    },
    {
      "name": "Circle_0",
      "primitives": [
        {
          "attributes": {
            "NORMAL": 32,
            "POSITION": 31,
            "TEXCOORD_0": 33
          },
          "indices": 34,
          "material": 7,
          "mode": 4
        }
      ]
    },
    {
      "name": "Cube.001_0",
      "primitives": [
        {
          "attributes": {
            "NORMAL": 36,
            "POSITION": 35,
            "TEXCOORD_0": 37
          },
          "indices": 38,
          "material": 8,
          "mode": 4
        }
      ]
    },
    {
      "name": "Cube.001_1",
      "primitives": [
        {
          "attributes": {
            "NORMAL": 40,
            "POSITION": 39,
            "TEXCOORD_0": 41
          },
          "indices": 42,
          "material": 9,
          "mode": 4
        }
      ]
    }
  ],
  "nodes": [
    {
      "children": [1],
      "matrix": [
        0.06722591072320938, 0.0, 0.0, 0.0, 0.0, 1.4927150787260453e-17,
        -0.06722591072320938, 0.0, 0.0, 0.06722591072320938,
        1.4927150787260453e-17, 0.0, 0.0, 0.0, 0.0, 1.0
      ],
      "name": "Sketchfab_model"
    },
    {
      "children": [2, 4, 6],
      "name": "Root"
    },
    {
      "children": [3],
      "matrix": [
        -0.054500000000000014, 0.5056400000000001, 0.8610200000000001, 0.0,
        -0.8568900000000002, -0.46637000000000006, 0.21964000000000003, 0.0,
        0.51261, -0.7258300000000001, 0.4587, 0.0, 9.66914, -10.36199,
        6.928929999999999, 1.0
      ],
      "name": "Lamp"
    },
    {
      "name": "Lamp"
    },
    {
      "children": [5],
      "matrix": [
        1.0, 0.0, 0.0, 0.0, -0.0, 1.0, 0.0, 0.0, 0.0, 0.0, 1.0, 0.0, 0.0,
        -0.07283, 0.6881400000000002, 1.0
      ],
      "name": "Plane"
    },
    {
      "mesh": 0,
      "name": "Plane_0"
    },
    {
      "children": [7, 8, 11, 13, 15, 17, 19, 21, 23],
      "matrix": [
        1.0, 0.0, 0.0, 0.0, -0.0, 0.99619, -0.08716000000000003, 0.0, -0.0,
        0.08716000000000003, 0.99619, 0.0, -0.0, -0.03336000000000001,
        0.37477000000000005, 1.0
      ],
      "name": "Cube.003"
    },
    {
      "mesh": 1,
      "name": "Cube.003_0"
    },
    {
      "children": [9, 10],
      "matrix": [
        0.15540000000000004, 0.015280000000000004, -0.0005900000000000001, 0.0,
        -0.0003500000000000001, 0.009560000000000003, 0.15586000000000003, 0.0,
        0.015290000000000003, -0.15510000000000002, 0.009550000000000003, 0.0,
        -4.31145, -0.36874, -2.5904, 1.0
      ],
      "name": "Circle.001"
    },
    {
      "mesh": 2,
      "name": "Circle.001_0"
    },
    {
      "mesh": 3,
      "name": "Circle.001_1"
    },
    {
      "children": [12],
      "matrix": [
        0.0, -0.0, -1.23711, 0.0, 0.0, 0.030160000000000006, 0.0, 0.0, 1.0, 0.0,
        0.0, 0.0, 4.97701, -0.5145299999999999, 0.35692000000000007, 1.0
      ],
      "name": "Plane.004"
    },
    {
      "mesh": 4,
      "name": "Plane.004_0"
    },
    {
      "children": [14],
      "matrix": [
        4.051620000000001, -0.0, -0.0, 0.0, 0.0, 1.0, 0.0, 0.0, 0.0, 0.0,
        0.016470000000000005, 0.0, -0.0, -0.36617000000000005, 3.46249, 1.0
      ],
      "name": "Cube"
    },
    {
      "mesh": 5,
      "name": "Cube_0"
    },
    {
      "children": [16],
      "matrix": [
        -0.027820000000000004, -0.0, 0.0, 0.0, -0.0, -0.08602000000000003,
        0.011930000000000003, 0.0, -0.0, -0.0038200000000000013,
        -0.027560000000000008, 0.0, 0.0, -0.3825800000000001,
        -1.9552199999999997, 1.0
      ],
      "name": "Cube.002"
    },
    {
      "mesh": 6,
      "name": "Cube.002_0"
    },
    {
      "children": [18],
      "matrix": [
        -2.06761, -0.0, 0.0, 0.0, -0.0, 0.0, 2.06761, 0.0, -0.0, 2.06761, -0.0,
        0.0, -0.012340000000000002, 0.012810000000000002, 2.0564599999999995,
        1.0
      ],
      "name": "56-apple-512"
    },
    {
      "mesh": 7,
      "name": "56-apple-512_0"
    },
    {
      "children": [20],
      "matrix": [
        -0.3839800000000001, 0.019200000000000002, -0.003300000000000001, 0.0,
        -0.0011600000000000002, 0.04249000000000001, 0.38212000000000007, 0.0,
        0.019450000000000005, 0.38164000000000003, -0.04238000000000001, 0.0,
        3.23999, -0.29313, -2.5027399999999997, 1.0
      ],
      "name": "iMacIO"
    },
    {
      "mesh": 8,
      "name": "iMacIO_0"
    },
    {
      "children": [22],
      "matrix": [
        0.32110000000000005, 0.0, 0.0, 0.0, 0.0, -0.0, 0.32110000000000005, 0.0,
        -0.0, -0.32110000000000005, -0.0, 0.0, -0.0, -0.8465, -2.7956, 1.0
      ],
      "name": "Circle"
    },
    {
      "mesh": 9,
      "name": "Circle_0"
    },
    {
      "children": [24, 25],
      "matrix": [
        1.0, 0.0, 0.0, 0.0, 0.0, 1.0, 0.0, 0.0, 0.0, 0.0, 1.0, 0.0, -0.0,
        -0.62421, -0.38305000000000006, 1.0
      ],
      "name": "Cube.001"
    },
    {
      "mesh": 10,
      "name": "Cube.001_0"
    },
    {
      "mesh": 11,
      "name": "Cube.001_1"
    }
  ],
  "samplers": [
    {
      "magFilter": 9729,
      "minFilter": 9987,
      "wrapS": 10497,
      "wrapT": 10497
    }
  ],
  "scene": 0,
  "scenes": [
    {
      "name": "Sketchfab_Scene",
      "nodes": [0]
    }
  ],
  "textures": [
    {
      "sampler": 0,
      "source": 0
    },
    {
      "sampler": 0,
      "source": 1
    },
    {
      "sampler": 0,
      "source": 2
    },
    {
      "sampler": 0,
      "source": 3
    }
  ]
}
